<svg class="icon" height="32"  version="1.1" viewBox="0 0 1024 1024" width="32" xmlns="http://www.w3.org/2000/svg">  <path    d="M791.96 978.54H232.04c-60.76 0-110.18-49.43-110.18-110.18V155.64c0-60.76 49.43-110.18 110.18-110.18h409.47c38.98 0 76.13 16.78 101.9 46.03l124.82 141.65a135.735 135.735 0 0 1 33.91 89.79v545.43c0 60.76-49.43 110.18-110.18 110.18zM232.04 118.52c-20.47 0-37.12 16.65-37.12 37.12v712.72c0 20.47 16.65 37.12 37.12 37.12h559.92c20.47 0 37.12-16.65 37.12-37.12V322.93c0-15.28-5.57-30.02-15.67-41.49L688.59 139.79a62.796 62.796 0 0 0-47.08-21.27H232.04z"    fill="#474747"></path>  <path    d="M867.49 360.56H717.04c-60.76 0-110.18-49.43-110.18-110.18V79.55h73.06v170.83c0 20.47 16.65 37.12 37.12 37.12h150.45v73.06z"    fill="#474747"></path>  <path    d="M438.22 415.35h-98.69c-20.18 0-36.53-16.36-36.53-36.53 0-20.18 16.36-36.53 36.53-36.53h98.69c20.18 0 36.53 16.36 36.53 36.53 0 20.18-16.36 36.53-36.53 36.53zM684.47 580.71H339.53c-20.18 0-36.53-16.36-36.53-36.53 0-20.18 16.36-36.53 36.53-36.53h344.94c20.18 0 36.53 16.36 36.53 36.53 0 20.18-16.36 36.53-36.53 36.53zM684.47 746.07H339.53c-20.18 0-36.53-16.36-36.53-36.53 0-20.18 16.36-36.53 36.53-36.53h344.94c20.18 0 36.53 16.36 36.53 36.53 0 20.18-16.36 36.53-36.53 36.53z"    fill="#4F95FC"></path></svg>